<?xml version="1.0" standalone="no"?>
<!DOCTYPE svg PUBLIC "-//W3C//DTD SVG 20010904//EN"
 "http://www.w3.org/TR/2001/REC-SVG-20010904/DTD/svg10.dtd">
<svg version="1.0" xmlns="http://www.w3.org/2000/svg"
 width="260.000000pt" height="260.000000pt" viewBox="0 0 260.000000 260.000000"
 preserveAspectRatio="xMidYMid meet">
<metadata>
Created by potrace 1.14, written by Peter Selinger 2001-2017
</metadata>
<g transform="translate(0.000000,260.000000) scale(0.100000,-0.100000)"
fill="#000000" stroke="none">
<path d="M1254 2362 c4 -3 14 -7 22 -8 9 -1 13 0 10 4 -4 3 -14 7 -22 8 -9 1
-13 0 -10 -4z"/>
<path d="M1179 2348 c-8 -25 -2 -51 13 -59 10 -5 18 -6 18 -2 0 4 5 1 10 -7 5
-8 10 -10 10 -5 0 6 -5 17 -10 25 -6 9 -10 11 -10 3 0 -7 -6 -10 -14 -7 -7 3
-12 16 -10 30 1 13 0 24 -2 24 -2 0 -4 -1 -5 -2z"/>
<path d="M1330 2339 c0 -5 5 -7 10 -4 6 3 10 8 10 11 0 2 -4 4 -10 4 -5 0 -10
-5 -10 -11z"/>
<path d="M1275 2330 c-3 -6 1 -7 9 -4 18 7 21 14 7 14 -6 0 -13 -4 -16 -10z"/>
<path d="M1133 2315 c0 -8 4 -12 9 -9 5 3 6 10 3 15 -9 13 -12 11 -12 -6z"/>
<path d="M1234 2307 c15 -24 15 -29 2 -42 -11 -11 -15 -12 -19 -2 -3 9 -8 9
-18 -2 -9 -9 -9 -11 -1 -7 6 4 12 2 12 -4 0 -7 -6 -10 -12 -7 -7 2 -12 11 -12
20 1 10 -4 13 -14 10 -10 -4 -13 -2 -8 5 4 7 2 12 -3 12 -16 0 -13 -16 4 -30
9 -7 13 -20 10 -28 -4 -10 0 -12 12 -8 17 6 17 5 1 -7 -10 -8 -15 -17 -11 -21
4 -4 -1 -4 -11 0 -15 6 -17 4 -11 -6 5 -9 4 -11 -3 -6 -7 4 -12 2 -12 -3 0 -6
-7 -11 -16 -11 -8 0 -12 -4 -9 -10 10 -16 -1 -11 -16 7 -12 14 -12 16 0 8 10
-5 12 -4 7 3 -5 8 -1 10 11 6 13 -4 15 -3 5 4 -11 7 -10 11 5 17 10 5 25 7 33
6 10 -2 8 2 -5 12 -11 9 -17 19 -12 23 4 4 7 2 7 -4 0 -7 5 -12 12 -12 6 0 4
7 -5 18 -20 22 -44 25 -44 6 0 -7 4 -11 9 -8 4 3 8 1 8 -4 0 -6 -7 -12 -15
-16 -8 -3 -15 0 -15 6 0 6 -3 8 -6 5 -4 -4 -1 -13 5 -21 8 -10 9 -16 1 -21 -5
-3 -10 -1 -10 4 0 6 -5 11 -11 11 -8 0 -8 -5 1 -15 10 -12 9 -16 -4 -21 -10
-4 -15 -12 -13 -19 3 -6 -1 -12 -8 -12 -7 0 -11 6 -8 14 3 7 0 13 -7 13 -6 0
-9 -4 -5 -9 8 -13 -52 -54 -66 -45 -8 5 -9 3 -4 -6 6 -10 4 -12 -8 -7 -11 4
-14 2 -10 -8 3 -8 9 -12 14 -9 5 3 9 0 9 -5 0 -6 -4 -11 -9 -11 -14 0 -21 -29
-9 -36 7 -5 8 -2 3 7 -5 8 1 5 13 -5 12 -11 20 -22 17 -25 -4 -3 -10 1 -15 9
-6 8 -10 11 -10 7 0 -4 -9 -3 -21 4 -15 8 -18 14 -10 22 6 6 11 18 11 27 0 9
-6 5 -14 -10 -8 -15 -9 -30 -4 -37 6 -8 2 -15 -11 -22 -16 -9 -22 -8 -29 4 -7
13 -10 11 -20 -10 -8 -17 -18 -25 -27 -21 -9 3 -12 0 -8 -10 4 -11 9 -12 16
-5 18 18 28 12 15 -8 -7 -11 -14 -19 -17 -19 -4 1 -14 -2 -24 -7 -12 -5 -23
-2 -33 11 -14 18 -15 18 -5 -3 8 -15 8 -22 0 -25 -6 -2 1 -9 16 -16 14 -7 23
-8 20 -2 -3 5 -1 10 5 10 6 0 9 4 5 9 -3 6 4 8 15 6 11 -2 18 0 15 5 -3 6 0 7
8 4 23 -9 16 -31 -10 -28 -20 2 -23 -1 -19 -19 3 -12 3 -16 0 -9 -3 6 -10 9
-15 6 -6 -3 -5 -11 2 -20 12 -14 11 -15 -29 -18 -7 -1 -17 -7 -21 -15 -7 -10
-13 -11 -30 -2 -11 7 -21 8 -21 4 0 -4 -6 0 -13 9 -12 15 -14 15 -26 -4 -9
-15 -9 -18 0 -13 7 5 10 3 7 -6 -3 -8 -14 -13 -24 -11 -18 2 -18 2 -1 -8 22
-14 6 -50 -20 -46 -10 2 -12 1 -5 -1 12 -4 17 -18 12 -38 -1 -5 -3 -17 -5 -25
-1 -8 -6 -13 -11 -11 -5 2 -15 6 -21 8 -7 3 -13 9 -13 15 0 5 3 7 8 4 4 -2 15
2 25 9 16 12 16 13 1 19 -10 4 -22 -1 -30 -11 -12 -17 -13 -17 -14 -1 0 21
-16 32 -26 17 -4 -7 -3 -9 3 -6 10 6 29 -37 24 -56 -1 -5 3 -6 8 -3 5 3 14 -1
21 -9 9 -10 9 -15 1 -15 -6 0 -11 5 -11 11 0 5 -4 8 -10 4 -5 -3 -6 -13 -3
-23 7 -18 5 -17 -17 12 -10 13 -10 17 -2 12 10 -6 10 -2 0 19 -10 22 -13 24
-21 10 -6 -12 -3 -22 9 -36 15 -17 16 -22 5 -29 -18 -10 -43 -1 -35 12 4 6 9
6 14 -2 5 -8 10 -8 14 -2 8 13 -17 22 -34 12 -7 -4 -9 -13 -5 -20 5 -8 3 -11
-6 -8 -8 3 -13 11 -11 17 1 8 -2 9 -9 5 -8 -5 -10 -2 -7 8 4 8 1 15 -7 15 -8
0 -11 -7 -7 -15 4 -11 1 -13 -8 -7 -9 5 -11 4 -6 -4 4 -6 10 -9 14 -7 4 2 13
-2 20 -10 12 -13 8 -18 -10 -15 -4 0 -5 -6 -2 -14 10 -24 -6 -17 -17 8 -8 19
-9 18 -4 -7 5 -25 4 -28 -8 -17 -23 18 -31 -4 -12 -32 8 -13 12 -27 8 -30 -3
-4 -1 -7 5 -7 7 0 12 5 12 10 0 6 5 10 11 10 8 0 7 -5 -1 -15 -8 -9 -21 -13
-34 -10 -21 6 -21 6 -1 -11 15 -13 16 -15 3 -11 -9 3 -22 -1 -30 -10 -11 -14
-10 -15 12 -9 22 6 21 5 -5 -11 -16 -9 -34 -17 -39 -18 -5 0 -11 -6 -14 -14
-3 -9 0 -11 8 -6 9 5 11 4 6 -4 -6 -9 -11 -9 -22 0 -11 9 -12 14 -4 19 7 4 12
11 13 16 1 5 6 8 10 6 5 -1 5 3 1 9 -5 8 -3 9 6 4 9 -6 11 -4 5 5 -5 8 -4 11
3 6 7 -4 10 1 7 14 -2 11 -1 19 3 16 4 -2 16 2 27 10 10 8 14 14 8 14 -5 0
-14 9 -19 19 -8 18 -10 18 -24 3 -13 -14 -12 -15 3 -9 21 8 22 -6 2 -23 -12
-10 -15 -10 -15 0 0 8 -3 10 -6 7 -4 -4 -2 -12 3 -19 8 -9 5 -19 -10 -33 l-20
-20 7 30 c5 25 4 27 -5 12 -6 -10 -8 -24 -6 -31 3 -7 1 -19 -3 -26 -5 -7 -4
-23 0 -35 7 -19 1 -30 -35 -65 -30 -30 -44 -51 -43 -67 1 -13 6 -23 11 -23 5
0 5 9 2 20 -4 13 -2 20 6 20 7 0 10 -3 6 -6 -3 -3 12 -23 34 -44 32 -30 36
-39 24 -44 -11 -4 -14 -2 -9 6 4 7 3 8 -4 4 -8 -5 -10 -1 -5 11 6 15 5 16 -9
3 -13 -13 -13 -16 6 -32 12 -9 16 -17 9 -18 -6 0 -15 4 -18 10 -3 5 -11 10
-18 10 -6 0 -1 -7 11 -16 12 -8 20 -19 17 -24 -3 -4 2 -11 10 -14 12 -4 13
-10 6 -24 -8 -15 -6 -18 12 -19 12 0 16 1 10 4 -18 7 -16 20 2 20 15 0 19 -10
15 -37 -1 -8 1 -12 5 -8 11 11 45 -10 40 -25 -3 -6 8 -18 25 -25 16 -8 29 -17
27 -20 -4 -12 27 -47 55 -61 16 -8 28 -18 28 -23 0 -5 -9 -4 -21 2 -11 7 -23
9 -26 7 -2 -3 5 -8 16 -12 12 -3 18 -11 15 -17 -4 -7 -2 -8 4 -4 6 4 26 -7 44
-24 28 -27 30 -30 11 -25 -13 4 -23 2 -23 -3 0 -9 15 -12 58 -13 18 -1 20 -4
11 -15 -6 -8 -8 -14 -4 -14 4 0 2 -7 -5 -15 -11 -13 -10 -14 4 -9 9 3 16 10
16 16 0 5 6 6 13 2 8 -6 8 -3 -1 9 -12 15 -11 16 17 12 17 -2 31 0 31 5 0 14
-18 21 -25 10 -9 -14 -47 8 -40 23 4 7 0 4 -8 -5 -8 -10 -18 -18 -22 -18 -4 0
-2 7 5 15 7 8 9 15 5 15 -4 0 -1 8 6 18 13 15 12 16 -3 3 -10 -7 -19 -11 -19
-7 -1 3 -2 10 -3 15 -2 18 -16 24 -16 8 0 -14 -3 -15 -19 -5 -16 9 -17 16 -9
31 8 15 7 18 -3 12 -8 -5 -10 -4 -5 3 4 7 2 10 -6 9 -7 -2 -10 -2 -5 0 4 3 4
9 1 15 -4 6 -10 5 -15 -3 -7 -11 -9 -11 -9 -1 0 7 -4 11 -9 7 -5 -3 -13 0 -17
6 -4 7 -3 9 4 5 6 -3 9 0 8 9 -3 22 -16 31 -16 11 0 -9 -5 -14 -10 -11 -8 5
-7 12 2 23 11 13 11 14 -1 7 -10 -5 -12 -4 -7 3 5 8 1 10 -11 6 -15 -5 -16 -4
-3 5 13 9 13 11 0 12 -8 1 -21 1 -29 0 -7 -2 -10 3 -6 9 4 6 14 9 22 6 9 -4
23 -1 32 6 9 7 13 9 9 4 -3 -4 10 -23 30 -41 21 -19 31 -35 24 -35 -7 0 -10
-5 -7 -10 5 -8 12 -7 23 2 10 7 14 8 10 4 -4 -5 0 -15 10 -23 16 -12 15 -13
-3 -7 -17 6 -17 4 5 -17 13 -13 33 -23 45 -22 15 1 16 1 2 -3 -9 -3 -15 -9
-12 -14 3 -5 13 -6 22 -3 12 5 15 2 10 -10 -3 -9 -2 -19 3 -22 5 -3 11 3 14
12 4 15 5 15 4 -2 -1 -37 2 -46 12 -40 6 4 8 11 5 16 -12 18 2 9 31 -22 16
-16 22 -28 13 -24 -10 4 -16 0 -17 -10 -1 -8 -3 -22 -4 -30 -1 -8 -5 -15 -10
-15 -4 0 -8 -5 -8 -11 0 -5 4 -8 9 -5 5 3 11 -1 15 -9 3 -8 10 -15 16 -15 6 0
4 7 -5 16 -10 11 -12 20 -6 28 5 6 9 14 8 18 -1 3 2 10 7 15 5 5 6 3 2 -4 -4
-8 -2 -13 5 -13 10 0 10 -3 1 -12 -7 -7 -12 -17 -12 -23 1 -5 10 1 21 14 16
20 22 22 32 11 9 -10 9 -11 0 -6 -16 9 -35 -28 -26 -50 5 -13 3 -15 -7 -9 -9
5 -11 4 -6 -3 4 -7 2 -12 -5 -12 -7 0 -9 -3 -6 -6 4 -4 13 -1 22 6 18 15 21 0
3 -18 -9 -9 -7 -13 7 -18 12 -5 23 -1 32 12 16 21 22 22 34 2 13 -20 10 -32
-5 -19 -11 9 -15 8 -20 -5 -4 -9 -4 -19 -1 -22 3 -3 5 0 5 6 0 7 5 12 11 12 5
0 7 -6 3 -12 -5 -9 -2 -9 9 1 10 8 17 9 17 3 0 -6 -5 -14 -10 -17 -6 -3 -10
-11 -10 -18 0 -6 6 -2 14 9 8 10 18 15 22 11 5 -4 2 -12 -5 -16 -15 -10 -7
-31 12 -31 7 0 6 4 -3 10 -8 5 -12 10 -7 11 4 1 12 3 17 4 6 1 14 3 18 4 5 0
9 8 9 17 0 14 -2 14 -14 -2 -10 -13 -13 -14 -14 -3 -1 8 -1 18 0 22 1 5 -4 5
-10 1 -8 -5 -9 -3 -4 6 5 8 4 11 -2 7 -16 -10 -24 18 -10 32 9 9 6 11 -15 7
-16 -3 -28 1 -31 8 -8 19 42 11 62 -10 9 -9 11 -14 4 -10 -6 3 -14 2 -18 -4
-6 -10 3 -13 40 -12 17 1 17 0 2 -4 -9 -3 -15 -9 -12 -14 3 -5 13 -6 22 -3 12
5 15 2 11 -9 -8 -19 9 -38 27 -32 9 4 11 -7 10 -38 -4 -60 -4 -60 -17 -52 -6
4 -8 3 -4 -4 3 -5 1 -12 -5 -14 -6 -2 2 -9 17 -16 24 -10 26 -10 13 1 -14 10
-15 16 -4 30 13 18 27 13 19 -7 -3 -7 7 -18 21 -24 15 -7 24 -8 21 -3 -4 5 0
11 6 14 21 7 -6 42 -30 41 -22 -1 -38 21 -22 31 5 3 7 13 4 23 -5 14 -4 14 4
2 8 -10 8 -18 0 -27 -12 -15 3 -17 20 -3 6 6 10 7 8 4 -7 -9 27 -43 37 -37 5
3 6 -3 3 -15 -5 -15 -2 -20 11 -18 12 0 18 -6 19 -19 1 -30 -6 -37 -22 -24 -7
6 -12 15 -9 19 3 5 0 12 -6 15 -6 5 -9 0 -8 -11 2 -11 -1 -26 -6 -34 -8 -13
-7 -13 10 0 17 13 18 13 13 -1 -3 -9 -2 -22 4 -30 8 -11 9 -11 5 2 -4 11 3 20
19 27 16 8 22 16 17 28 -5 15 -3 14 13 -2 11 -10 16 -21 12 -22 -5 -2 -6 -8
-3 -12 3 -5 0 -12 -6 -16 -8 -5 -9 -3 -4 6 6 9 4 11 -5 5 -9 -6 -11 -4 -5 5 5
9 4 11 -4 6 -6 -4 -9 -12 -6 -17 4 -5 1 -9 -5 -9 -6 0 -8 -4 -5 -10 9 -15 19
-12 45 12 18 17 22 18 17 5 -3 -9 -2 -17 2 -17 5 0 12 -8 15 -17 6 -16 5 -16
-11 -1 -16 14 -20 15 -37 2 -11 -8 -15 -14 -10 -14 6 0 15 5 22 12 7 7 12 8
12 2 0 -6 -5 -15 -12 -22 -8 -8 -9 -12 -1 -12 6 0 13 6 16 13 2 6 8 9 12 5 4
-4 3 -13 -1 -20 -13 -20 -13 -38 -2 -38 6 0 8 7 5 15 -4 8 -2 17 3 20 6 4 10
2 10 -3 0 -21 30 -21 41 0 9 16 8 19 -2 13 -7 -5 -10 -4 -6 2 3 5 -1 10 -9 10
-10 0 -11 -4 -4 -11 16 -16 12 -30 -5 -16 -9 7 -13 20 -10 27 2 8 0 24 -6 36
-10 21 -10 21 5 3 9 -11 16 -23 16 -28 0 -4 4 -7 10 -6 5 2 28 -17 51 -42 23
-25 38 -39 33 -31 -4 8 -3 12 2 8 6 -3 39 21 74 53 34 33 68 57 73 53 7 -4 8
1 4 13 -6 16 -5 17 6 4 15 -19 37 -24 37 -8 0 6 10 3 22 -8 19 -15 20 -16 9
-1 -14 18 -3 24 17 7 6 -6 10 -7 7 -4 -2 4 0 15 5 25 7 12 6 20 -2 26 -20 12
-39 12 -32 1 4 -7 2 -8 -4 -4 -20 12 -13 25 11 22 33 -4 58 -17 51 -27 -3 -5
0 -9 6 -9 7 0 9 8 5 23 -6 18 -5 20 6 9 7 -6 17 -12 23 -12 5 0 1 6 -10 14
-10 8 -15 18 -11 22 4 5 12 2 17 -6 5 -8 11 -12 14 -10 2 3 -2 14 -10 25 -12
16 -16 17 -23 6 -7 -11 -10 -11 -15 0 -3 8 -3 4 -1 -8 7 -25 -10 -40 -19 -17
-3 9 -13 14 -21 11 -9 -4 -12 -1 -8 9 4 12 8 12 21 2 13 -11 15 -10 10 3 -3 9
-2 22 3 30 5 8 9 9 9 4 0 -6 10 -11 23 -12 21 -2 21 -1 3 13 -11 8 -15 14 -9
14 7 0 15 -5 18 -11 4 -6 14 -8 22 -4 12 4 13 2 5 -8 -7 -8 -7 -18 -2 -27 7
-11 10 -11 11 -2 1 6 3 17 4 22 1 6 3 14 4 20 0 5 26 26 56 46 57 38 67 48 38
37 -10 -4 -14 -2 -9 5 3 6 1 14 -5 18 -8 5 -9 3 -4 -6 6 -9 4 -11 -5 -5 -7 5
-11 4 -7 -1 3 -5 -1 -18 -9 -29 -8 -10 -14 -13 -14 -6 0 7 -5 9 -11 5 -8 -4
-7 -9 2 -15 10 -6 10 -9 2 -9 -20 0 -27 22 -9 32 14 8 15 12 4 26 -11 15 -11
15 4 4 11 -9 18 -10 23 -2 3 5 1 10 -4 10 -6 0 -11 5 -11 11 0 6 5 7 13 2 12
-7 29 -12 57 -17 23 -3 41 -16 35 -26 -3 -4 3 -14 13 -21 15 -12 16 -12 5 2
-7 9 -11 18 -8 21 3 3 -1 11 -10 18 -20 17 -19 29 3 25 9 -1 11 0 4 2 -10 3
-7 10 10 21 12 9 26 16 31 14 4 -1 7 2 7 8 0 5 -5 10 -11 10 -5 0 -7 5 -4 10
5 8 11 7 21 -1 10 -8 14 -8 14 0 0 6 -4 11 -10 11 -5 0 -8 6 -6 13 1 6 1 9 -1
5 -5 -9 -43 13 -43 25 0 4 4 6 9 2 6 -3 14 3 20 12 6 10 11 13 11 8 0 -6 -6
-17 -12 -24 -11 -11 -10 -13 4 -8 13 4 22 -2 31 -20 12 -21 15 -23 20 -9 4 9
3 15 -2 12 -4 -3 -14 7 -20 21 -10 22 -10 28 3 35 9 5 13 15 9 26 -7 18 -5 17
17 -12 12 -16 12 -18 1 -11 -9 5 -12 4 -7 -3 4 -6 14 -8 23 -5 11 4 14 3 9 -5
-4 -7 -19 -10 -33 -7 -21 3 -24 2 -14 -8 18 -18 60 -17 53 2 -4 10 -1 12 9 6
12 -8 12 -6 1 8 -8 9 -11 21 -8 26 4 5 1 13 -5 17 -8 5 -9 3 -4 -6 6 -9 4 -11
-5 -5 -9 6 -11 4 -5 -6 6 -11 5 -12 -5 -2 -17 15 -10 24 23 27 22 3 25 0 20
-23 -2 -14 -2 -23 2 -20 3 4 8 16 10 29 8 39 45 69 45 36 0 -20 17 -29 26 -15
4 7 3 9 -3 6 -6 -4 -13 2 -16 13 -6 22 3 26 21 8 14 -14 44 -20 36 -7 -3 5 -9
7 -14 4 -4 -3 -13 1 -19 9 -18 21 13 43 36 25 15 -12 16 -12 8 1 -13 20 -13
34 -1 42 12 8 38 -11 31 -22 -3 -5 -1 -11 4 -14 13 -8 7 22 -7 36 -18 18 -14
27 11 22 20 -4 20 -4 -3 7 -14 7 -30 11 -36 10 -6 -1 -17 6 -24 14 -7 9 -8 15
-2 15 6 0 12 -6 15 -12 2 -7 8 -10 12 -6 4 4 2 14 -4 22 -9 11 -9 16 0 22 7 4
9 3 6 -3 -4 -5 3 -20 14 -31 20 -22 35 -30 24 -13 -3 5 -1 12 5 16 5 3 10 1
10 -4 0 -6 8 -11 18 -11 16 1 16 1 0 11 -10 5 -18 14 -18 19 0 12 22 9 33 -5
5 -6 6 -1 2 10 -4 11 -8 25 -8 32 0 7 -4 10 -8 7 -5 -2 -6 -12 -3 -22 5 -15 4
-15 -6 1 -11 17 -30 15 -30 -4 0 -6 5 -7 11 -3 7 4 7 -1 -1 -16 -6 -12 -14
-19 -17 -17 -7 8 -11 57 -4 53 10 -6 30 21 23 30 -4 5 0 3 10 -4 10 -8 19 -9
22 -3 3 5 1 11 -6 13 -9 3 -9 6 0 12 7 4 12 2 12 -3 0 -14 37 -14 45 -1 3 6
11 10 18 10 8 0 8 -3 -1 -12 -7 -7 -12 -17 -12 -22 0 -6 7 0 16 13 14 19 14
25 3 32 -19 12 -29 11 -26 -3 1 -6 -7 -13 -18 -14 -15 -2 -16 -2 -2 2 9 3 15
9 12 14 -3 5 -13 7 -23 4 -14 -5 -14 -4 -2 4 8 6 18 8 22 6 4 -3 8 2 8 10 0 9
5 16 11 16 5 0 7 5 4 10 -3 6 1 13 11 17 26 10 52 -42 29 -60 -6 -5 -4 -7 5
-4 8 2 14 10 13 16 -2 6 3 11 10 11 6 0 4 5 -5 11 -10 5 -18 17 -18 24 0 8 -4
15 -9 15 -6 0 6 17 24 38 19 20 35 40 35 45 0 4 -17 23 -37 42 -21 20 -38 41
-38 48 -1 7 -6 11 -13 9 -7 -1 -17 9 -24 23 -6 13 -16 22 -22 18 -6 -3 -8 -3
-4 1 4 5 -5 19 -20 33 -15 14 -19 20 -9 13 19 -14 24 -1 6 17 -8 8 -7 13 2 18
8 6 10 4 4 -6 -6 -10 -3 -9 11 2 10 9 26 14 34 12 13 -4 13 -3 0 6 -8 5 -18 7
-22 5 -4 -3 -8 2 -8 10 0 19 -11 21 -28 4 -16 -16 -16 4 1 22 10 12 9 12 -5 1
-20 -15 -25 -2 -6 17 9 9 9 12 0 12 -7 0 -12 -5 -12 -11 0 -5 -5 -7 -12 -3 -7
5 -5 11 7 21 11 7 14 13 8 13 -7 0 -15 -5 -18 -10 -4 -6 -11 -7 -17 -4 -6 4
-5 9 3 15 7 4 10 11 6 16 -5 4 -12 1 -17 -7 -7 -12 -12 -12 -22 -2 -8 8 -8 12
-1 12 6 0 18 12 27 28 l17 27 -20 -22 c-18 -22 -38 -32 -27 -15 2 4 0 14 -5
22 -8 12 -9 11 -7 -4 2 -10 -3 -21 -10 -23 -8 -3 -10 1 -5 13 6 15 3 14 -17
-4 -32 -30 -41 -28 -35 10 5 24 3 29 -7 21 -17 -14 -50 -13 -43 1 3 6 8 19 11
29 4 9 10 17 15 17 12 0 11 -17 -1 -25 -13 -8 -13 -25 1 -25 5 0 7 5 3 12 -5
7 -3 8 6 3 9 -5 11 -4 6 3 -4 7 -3 12 3 12 10 0 27 -39 23 -53 -1 -5 2 -6 8
-2 7 4 7 12 0 26 -6 10 -8 19 -4 19 4 0 -5 9 -20 21 -14 11 -24 25 -21 30 4 5
4 9 1 9 -3 0 -12 -13 -21 -30 -9 -16 -21 -30 -28 -30 -8 0 -7 4 3 10 8 5 11
12 7 16 -4 4 -13 2 -19 -4 -17 -17 -41 18 -25 36 8 11 7 13 -4 12 -23 -4 -39
0 -39 8 0 4 11 8 25 8 25 0 42 -21 24 -31 -11 -7 -2 -25 12 -25 6 0 8 4 5 8
-3 5 1 9 9 9 8 0 15 -5 15 -11 0 -6 5 -3 11 7 13 23 4 34 -15 18 -11 -9 -15
-8 -20 5 -9 22 -8 23 17 18 22 -5 22 -4 1 5 -31 13 -37 27 -24 52 9 16 9 24
-1 33 -9 8 -10 8 -5 -1 8 -14 -3 -43 -16 -43 -5 0 -7 3 -5 8 3 4 0 16 -4 27
-8 18 -9 18 -5 -3 3 -17 1 -22 -10 -18 -20 8 -44 -4 -38 -19 7 -17 -12 -29
-22 -14 -4 8 -3 9 4 5 7 -4 12 -2 12 3 0 6 -7 11 -15 11 -8 0 -15 4 -15 10 0
5 7 6 17 3 12 -5 14 -3 8 7 -5 8 -4 11 2 7 14 -9 47 18 39 31 -4 7 -13 12 -19
12 -7 0 -6 -4 3 -10 8 -5 11 -12 7 -16 -4 -4 -13 -2 -19 4 -7 7 -17 12 -22 12
-6 0 -5 -4 2 -9 11 -7 10 -9 -3 -14 -9 -4 -13 -3 -10 2 3 5 1 12 -5 16 -10 6
-14 -7 -11 -34 2 -11 0 -11 -12 0 -9 9 -11 16 -5 20 6 4 8 11 4 17 -3 6 -1 14
5 18 7 4 9 3 6 -3 -3 -5 0 -10 8 -10 21 0 19 4 -12 32 -16 13 -23 25 -17 25
17 0 46 48 34 55 -6 4 -10 3 -9 -2 3 -11 -12 -43 -20 -43 -4 0 -7 9 -8 20 -1
13 2 18 9 14 7 -4 8 -2 4 5 -10 15 -27 4 -24 -16 2 -9 -3 -18 -10 -20 -8 -3
-10 1 -5 13 6 15 3 14 -17 -4 -13 -12 -28 -22 -32 -22 -12 0 -2 48 14 68 10
12 10 14 1 8 -7 -4 -13 -2 -13 3 0 6 5 11 12 11 6 0 9 3 6 6 -4 3 -15 1 -27
-5 -11 -6 -22 -7 -25 -2 -3 5 3 11 14 14 11 3 20 11 20 19 0 8 -3 9 -8 2 -10
-15 -42 -25 -42 -14 0 6 7 10 15 10 8 0 15 4 15 9 0 4 -10 7 -22 7 -32 -3 -45
6 -22 15 18 7 18 8 -2 8 -12 1 -27 7 -33 15 -10 11 -8 17 6 25 10 6 13 11 7
11 -6 0 -17 -7 -24 -15 -7 -8 -16 -15 -21 -15 -5 0 -9 7 -9 15 0 18 -16 20
-26 3 -5 -7 -3 -8 6 -3 8 5 11 4 7 -2 -4 -6 5 -15 18 -21 14 -7 25 -17 25 -24
0 -9 3 -8 10 2 9 13 10 13 11 0 1 -8 1 -19 0 -23 -1 -5 3 -6 8 -3 5 4 13 1 17
-5 3 -6 1 -15 -6 -19 -9 -5 -9 -9 -1 -14 6 -4 11 -2 11 4 0 6 5 8 11 4 8 -4 6
-10 -6 -17 -18 -9 -39 8 -29 24 2 4 0 10 -6 14 -5 3 -10 1 -10 -4 0 -6 -5 -11
-11 -11 -8 0 -8 5 1 15 10 12 9 16 -4 21 -9 3 -13 10 -10 15 3 5 1 9 -5 9 -5
0 -11 -3 -14 -7 -2 -5 -2 -2 0 6 2 8 -2 11 -12 7 -11 -4 -14 -2 -9 6 5 7 2 9
-9 5 -12 -4 -14 -2 -10 10 4 9 2 14 -3 10 -6 -3 -16 -2 -24 4 -11 6 -12 9 -2
9 7 0 10 5 7 10 -4 6 -11 7 -17 4 -7 -4 -8 -2 -4 4 4 7 2 13 -3 13 -6 1 -17 2
-23 3 -7 0 -13 8 -13 16 -1 8 -6 14 -11 13 -6 -1 -29 16 -50 38 -27 28 -33 38
-19 34 15 -5 17 -5 6 3 -15 11 -44 1 -56 -18 -3 -6 -12 -10 -18 -10 -7 0 -6 4
3 11 13 9 13 10 0 6 -8 -2 -21 3 -29 12 -7 9 -6 3 3 -12z m-99 -87 c-3 -5 -12
-10 -18 -10 -7 0 -6 4 3 10 19 12 23 12 15 0z m-35 -74 c10 -13 10 -17 3 -12
-8 4 -13 2 -13 -4 0 -6 -5 -8 -12 -4 -8 5 -9 2 -5 -10 5 -14 3 -15 -13 -6 -12
7 -21 7 -25 0 -3 -5 2 -11 12 -11 16 -1 16 -2 1 -6 -11 -3 -15 -10 -11 -21 5
-14 3 -14 -9 1 -13 18 -15 18 -29 1 -12 -16 -12 -17 4 -11 9 3 17 2 17 -3 0
-6 -7 -10 -16 -10 -8 0 -12 -5 -9 -11 4 -6 -2 -5 -14 3 -19 12 -20 14 -6 25
12 8 13 13 5 18 -15 9 46 48 78 50 23 2 44 15 23 15 -7 0 -9 5 -6 11 4 6 8 9
9 7 1 -2 8 -12 16 -22z m569 -105 c13 -3 -24 -29 -40 -28 -22 1 -24 8 -8 24 9
9 18 10 48 4z m-734 -32 c-4 -6 -1 -9 7 -7 7 2 15 -1 16 -7 2 -8 -10 -10 -50
-6 -6 1 -3 8 8 16 23 17 27 18 19 4z m-19 -55 c0 -6 -9 -9 -20 -8 -12 1 -25 3
-29 3 -5 1 -5 6 -2 12 4 6 14 8 24 5 14 -5 13 -4 -1 8 -10 7 -18 19 -18 26 0
15 46 -30 46 -46z m819 17 c-3 -2 2 -12 11 -22 10 -11 12 -19 4 -24 -5 -3 -8
-11 -5 -16 4 -5 1 -9 -4 -9 -15 0 -14 27 1 32 9 3 9 6 0 12 -8 4 -16 -1 -22
-16 -9 -20 -10 -20 -9 -3 2 37 -1 46 -13 39 -6 -4 -8 -3 -5 2 3 5 15 10 26 10
11 0 18 -2 16 -5z m115 -128 c0 -13 2 -15 8 -5 7 10 12 8 25 -6 15 -16 15 -19
2 -19 -8 0 -15 4 -15 8 0 12 -31 4 -41 -12 -5 -9 -9 -10 -9 -2 0 6 5 15 11 18
6 4 8 13 5 21 -3 8 -1 14 4 14 6 0 10 -8 10 -17z m-1125 -18 c6 -1 9 -7 7 -14
-1 -7 3 -19 9 -27 8 -10 8 -14 0 -14 -6 0 -11 5 -11 10 0 6 -5 10 -10 10 -7 0
-7 -6 0 -19 7 -14 7 -22 -2 -27 -7 -4 -8 -3 -4 4 4 6 -2 20 -13 31 -13 13 -16
23 -10 27 6 3 8 13 5 21 -4 9 -2 11 7 6 6 -4 17 -8 22 -8z m45 -19 c0 -3 -4
-8 -10 -11 -5 -3 -10 -1 -10 4 0 6 5 11 10 11 6 0 10 -2 10 -4z m-75 -69 c-1
-12 -6 -20 -11 -17 -5 2 -8 11 -6 18 2 8 -1 11 -8 7 -7 -5 -7 0 1 14 15 23 26
12 24 -22z m1359 -88 c-2 -4 12 -19 32 -34 28 -22 33 -29 23 -41 -9 -12 -9
-13 3 -9 9 4 18 -1 22 -11 5 -12 9 -14 20 -5 10 9 15 8 20 -4 3 -9 2 -13 -4
-10 -5 3 -17 -4 -28 -15 l-19 -20 -19 21 c-10 11 -14 20 -9 19 21 -5 36 0 30
10 -3 5 -12 7 -20 3 -8 -3 -15 0 -15 6 0 6 -3 10 -7 9 -14 -5 -54 29 -53 43 4
27 0 40 -10 34 -6 -4 -7 -11 -4 -17 4 -7 2 -8 -5 -4 -16 11 2 32 28 32 11 0
18 -3 15 -7z m-1519 -40 c-4 -6 -1 -9 7 -7 7 2 15 -1 16 -7 2 -8 -12 -10 -50
-6 -8 1 -5 7 6 16 23 18 30 19 21 4z m-65 -52 c0 16 32 25 44 12 8 -8 8 -13
-2 -16 -6 -3 -9 -10 -5 -16 4 -7 -1 -6 -10 2 -10 8 -20 11 -24 8 -8 -9 -33 12
-33 27 0 6 7 2 15 -8 8 -11 15 -15 15 -9z m-81 -387 c-3 -29 1 -41 11 -35 6 4
7 11 4 17 -4 7 -2 8 5 4 6 -4 8 -12 5 -18 -5 -8 -1 -9 12 -4 10 4 15 4 11 0
-4 -5 3 -14 15 -21 l23 -14 -22 6 c-14 4 -23 2 -23 -4 0 -6 7 -11 15 -11 17 0
20 -16 5 -25 -6 -3 -13 1 -16 9 -3 9 -10 13 -15 10 -9 -5 -13 9 -10 33 1 6 -6
10 -16 8 -10 -1 -24 2 -30 8 -16 12 -17 37 -2 37 5 0 8 -4 4 -9 -3 -5 -1 -12
4 -15 5 -4 8 1 7 10 -1 8 -9 20 -17 24 -10 7 -8 9 9 7 14 -1 22 -7 21 -17z
m96 -90 c3 -5 1 -10 -4 -10 -6 0 -11 5 -11 10 0 6 2 10 4 10 3 0 8 -4 11 -10z
m1599 -87 c10 4 13 1 10 -8 -3 -7 -12 -16 -20 -19 -9 -3 -13 -9 -10 -14 5 -9
-109 -88 -121 -85 -11 4 -12 43 -1 43 5 0 6 -10 3 -22 -7 -22 -7 -22 8 -3 8
10 13 26 10 35 -4 12 -3 12 5 1 6 -8 12 -9 16 -3 3 6 2 13 -4 17 -11 7 41 55
60 55 6 0 8 5 4 13 -6 8 -3 8 9 -2 9 -7 23 -11 31 -8z m-1453 -130 c13 -16 12
-17 -3 -4 -10 7 -18 15 -18 17 0 8 8 3 21 -13z m1197 -130 c-6 -7 -7 -13 -2
-13 4 0 -9 -16 -30 -35 -29 -26 -42 -33 -52 -24 -14 11 -15 49 -1 49 5 0 6 -9
2 -19 -3 -11 -1 -22 4 -26 7 -3 8 0 5 9 -3 9 -1 16 6 16 6 0 9 4 6 9 -3 5 1
14 10 21 8 7 13 19 10 26 -7 19 3 23 29 10 17 -8 21 -14 13 -23z m-1017 0 c0
-5 2 -19 3 -33 4 -34 -3 -50 -21 -50 -12 0 -13 3 -4 14 9 11 10 20 1 36 -11
21 -6 40 11 40 5 0 9 -3 10 -7z m39 -13 c0 -5 -5 -10 -11 -10 -5 0 -7 5 -4 10
3 6 8 10 11 10 2 0 4 -4 4 -10z m799 -162 c-12 -10 -25 -16 -29 -13 -11 7 -8
45 3 45 5 0 5 -10 2 -22 -7 -22 -7 -22 8 -3 8 10 12 26 10 35 -4 9 0 7 10 -5
15 -19 15 -21 -4 -37z m-615 -79 c-9 -14 -27 -6 -30 14 -2 14 1 15 17 6 11 -5
17 -15 13 -20z m471 -44 c6 0 15 4 22 8 14 9 25 -5 15 -18 -12 -17 -70 -15
-76 1 -3 9 -1 12 4 9 6 -3 10 2 11 12 0 15 2 15 7 3 4 -9 12 -15 17 -15z"/>
<path d="M1009 2103 c-13 -15 -17 -22 -8 -15 9 6 19 10 22 7 4 -3 5 -2 2 2 -3
3 0 12 6 20 21 25 3 13 -22 -14z"/>
<path d="M1630 2028 c0 -4 4 -8 9 -8 6 0 12 4 15 8 3 5 -1 9 -9 9 -8 0 -15 -4
-15 -9z"/>
<path d="M709 1803 c-13 -16 -12 -17 4 -4 9 7 17 15 17 17 0 8 -8 3 -21 -13z"/>
<path d="M2044 1621 c1 -20 26 -47 43 -46 25 0 22 13 -10 38 -29 22 -34 23
-33 8z m56 -38 c0 -7 -39 17 -46 28 -3 6 5 3 20 -6 14 -10 26 -19 26 -22z"/>
<path d="M2121 1531 c-8 -5 -9 -11 -3 -15 5 -3 12 1 16 9 6 17 6 18 -13 6z"/>
<path d="M490 1559 c0 -5 5 -7 10 -4 6 3 10 8 10 11 0 2 -4 4 -10 4 -5 0 -10
-5 -10 -11z"/>
<path d="M2021 969 c-18 -11 -30 -25 -28 -32 2 -7 -5 -23 -17 -36 l-21 -24 33
23 c17 13 32 27 32 32 0 4 6 7 13 6 7 -2 11 5 9 16 -2 10 1 15 7 12 5 -4 12
-2 15 3 12 19 -11 19 -43 0z"/>
<path d="M1797 750 c10 -13 8 -18 -8 -29 -12 -7 -18 -15 -15 -18 3 -4 0 -13
-7 -22 -7 -9 -2 -8 15 4 33 25 41 50 19 67 -14 11 -14 11 -4 -2z"/>
<path d="M790 720 c0 -5 5 -10 11 -10 5 0 7 5 4 10 -3 6 -8 10 -11 10 -2 0 -4
-4 -4 -10z"/>
<path d="M1355 2322 c3 -3 0 -10 -5 -17 -7 -8 -2 -19 15 -35 14 -13 25 -20 25
-16 0 5 7 3 15 -4 8 -7 12 -17 8 -23 -3 -5 -1 -7 4 -4 13 8 65 -31 58 -43 -7
-11 15 -7 42 8 29 16 34 15 26 -5 -7 -17 -6 -17 11 0 10 9 23 14 29 10 7 -3 9
-2 4 2 -11 12 -49 14 -69 4 -10 -6 -19 -5 -23 1 -3 5 -1 10 4 10 7 0 7 7 -1
20 -7 11 -20 20 -28 19 -31 -3 -41 1 -34 14 6 9 4 9 -8 -1 -11 -9 -18 -10 -23
-2 -3 5 -1 10 4 10 6 0 3 8 -6 19 -15 15 -20 16 -29 5 -6 -8 -14 -11 -18 -7
-3 3 1 14 9 23 13 15 13 17 0 17 -8 0 -13 -3 -10 -5z m39 -53 c-3 -5 -10 -7
-15 -3 -5 3 -7 10 -3 15 3 5 10 7 15 3 5 -3 7 -10 3 -15z m70 -33 c11 -1 21
-8 21 -16 0 -8 4 -22 9 -30 5 -8 -6 -2 -25 15 -54 47 -55 49 -40 40 7 -4 23
-8 35 -9z"/>
<path d="M1394 2322 c4 -3 14 -7 22 -8 9 -1 13 0 10 4 -4 3 -14 7 -22 8 -9 1
-13 0 -10 -4z"/>
<path d="M1453 2285 c-3 -9 -3 -18 -1 -21 3 -3 8 4 11 16 6 23 -1 27 -10 5z"/>
<path d="M1073 2253 c0 -9 4 -10 14 -2 7 6 13 12 13 14 0 1 -6 2 -13 2 -8 0
-14 -6 -14 -14z"/>
<path d="M1596 2262 c-3 -5 1 -9 9 -9 8 0 12 4 9 9 -3 4 -7 8 -9 8 -2 0 -6 -4
-9 -8z"/>
<path d="M1043 2239 c9 -6 14 -15 11 -21 -4 -7 -2 -8 5 -4 14 9 -3 36 -23 36
-6 0 -3 -5 7 -11z"/>
<path d="M1500 2244 c0 -1 6 -7 14 -13 10 -9 15 -8 19 2 3 8 -3 13 -14 13 -11
0 -19 -1 -19 -2z"/>
<path d="M916 2193 c-6 -14 -5 -15 5 -6 7 7 10 15 7 18 -3 3 -9 -2 -12 -12z"/>
<path d="M1016 2183 c-6 -14 -5 -15 5 -6 7 7 10 15 7 18 -3 3 -9 -2 -12 -12z"/>
<path d="M1050 2190 c0 -5 5 -10 11 -10 5 0 7 5 4 10 -3 6 -8 10 -11 10 -2 0
-4 -4 -4 -10z"/>
<path d="M1590 2160 c-9 -6 -10 -10 -3 -10 6 0 15 5 18 10 8 12 4 12 -15 0z"/>
<path d="M998 2153 c7 -3 16 -2 19 1 4 3 -2 6 -13 5 -11 0 -14 -3 -6 -6z"/>
<path d="M1630 2139 c0 -5 5 -7 10 -4 6 3 10 8 10 11 0 2 -4 4 -10 4 -5 0 -10
-5 -10 -11z"/>
<path d="M1656 2118 c3 -5 10 -6 15 -3 13 9 11 12 -6 12 -8 0 -12 -4 -9 -9z"/>
<path d="M1715 2090 c-4 -6 -11 -7 -17 -4 -7 4 -8 2 -4 -5 6 -9 11 -9 22 0 14
11 18 19 10 19 -3 0 -8 -5 -11 -10z"/>
<path d="M896 2063 c-6 -14 -5 -15 5 -6 7 7 10 15 7 18 -3 3 -9 -2 -12 -12z"/>
<path d="M1721 2044 c0 -11 3 -14 6 -6 3 7 2 16 -1 19 -3 4 -6 -2 -5 -13z"/>
<path d="M820 2040 c-8 -5 -10 -10 -5 -10 6 0 17 5 25 10 8 5 11 10 5 10 -5 0
-17 -5 -25 -10z"/>
<path d="M1690 2028 c-20 -32 -23 -53 -4 -37 7 6 12 15 9 19 -3 5 0 10 6 12 7
2 10 9 8 16 -2 7 -10 3 -19 -10z"/>
<path d="M890 2030 c0 -5 5 -10 11 -10 5 0 7 5 4 10 -3 6 -8 10 -11 10 -2 0
-4 -4 -4 -10z"/>
<path d="M1796 1993 c-6 -14 -5 -15 5 -6 7 7 10 15 7 18 -3 3 -9 -2 -12 -12z"/>
<path d="M806 1953 c-6 -14 -5 -15 5 -6 7 7 10 15 7 18 -3 3 -9 -2 -12 -12z"/>
<path d="M1770 1962 c0 -4 8 -15 19 -24 17 -15 18 -14 18 11 0 14 -2 20 -4 14
-3 -7 -9 -13 -14 -13 -6 0 -7 5 -4 10 3 6 1 10 -4 10 -6 0 -11 -3 -11 -8z"/>
<path d="M735 1940 c-3 -5 -1 -10 4 -10 6 0 11 5 11 10 0 6 -2 10 -4 10 -3 0
-8 -4 -11 -10z"/>
<path d="M750 1901 c0 -5 6 -11 13 -14 6 -2 8 -8 4 -13 -5 -5 -14 -1 -22 9
-11 16 -12 15 -12 -8 0 -33 20 -50 36 -31 7 8 19 12 26 10 9 -4 13 1 12 15 0
11 -3 18 -6 16 -2 -3 -15 2 -28 10 -13 9 -23 11 -23 6z m46 -33 c4 -6 3 -8 -3
-5 -6 4 -16 0 -23 -8 -13 -16 -30 -11 -30 8 0 8 3 8 9 -1 6 -10 10 -10 21 3
15 18 17 18 26 3z"/>
<path d="M596 1873 c-6 -14 -5 -15 5 -6 7 7 10 15 7 18 -3 3 -9 -2 -12 -12z"/>
<path d="M1919 1868 c-5 -18 -6 -38 -1 -34 7 8 12 36 6 36 -2 0 -4 -1 -5 -2z"/>
<path d="M2033 1835 c0 -8 4 -12 9 -9 5 3 6 10 3 15 -9 13 -12 11 -12 -6z"/>
<path d="M635 1830 c-3 -5 -1 -10 4 -10 6 0 11 5 11 10 0 6 -2 10 -4 10 -3 0
-8 -4 -11 -10z"/>
<path d="M1950 1823 c0 -5 5 -15 10 -23 7 -12 9 -10 7 8 -1 19 -17 33 -17 15z"/>
<path d="M634 1791 c20 -22 26 -25 26 -13 0 4 -10 13 -22 21 -23 14 -23 14 -4
-8z"/>
<path d="M605 1782 c-14 -10 -17 -32 -5 -32 6 0 10 7 10 16 0 9 5 12 12 8 7
-4 8 -3 4 4 -8 14 -8 14 -21 4z"/>
<path d="M1980 1773 c0 -6 8 -17 18 -24 16 -13 16 -13 2 6 -8 11 -16 22 -17
24 -2 2 -3 0 -3 -6z"/>
<path d="M2035 1770 c-4 -6 -11 -7 -17 -4 -7 4 -8 2 -4 -5 6 -9 11 -9 22 0 14
11 18 19 10 19 -3 0 -8 -5 -11 -10z"/>
<path d="M535 1740 c-3 -5 -1 -10 4 -10 6 0 11 5 11 10 0 6 -2 10 -4 10 -3 0
-8 -4 -11 -10z"/>
<path d="M2036 1735 c-10 -7 -16 -20 -13 -27 4 -11 6 -11 6 0 1 7 6 10 11 7 6
-4 9 -1 8 7 -2 7 3 12 10 10 8 -1 11 2 7 8 -8 12 -6 12 -29 -5z"/>
<path d="M536 1703 c-6 -14 -5 -15 5 -6 7 7 10 15 7 18 -3 3 -9 -2 -12 -12z"/>
<path d="M625 1701 c-3 -5 -2 -12 3 -15 5 -3 9 1 9 9 0 17 -3 19 -12 6z"/>
<path d="M2127 1679 c7 -7 15 -10 18 -7 3 3 -2 9 -12 12 -14 6 -15 5 -6 -5z"/>
<path d="M518 1673 c7 -3 16 -2 19 1 4 3 -2 6 -13 5 -11 0 -14 -3 -6 -6z"/>
<path d="M2140 1646 c0 -2 8 -10 18 -17 15 -13 16 -12 3 4 -13 16 -21 21 -21
13z"/>
<path d="M2220 1646 c0 -2 8 -10 18 -17 15 -13 16 -12 3 4 -13 16 -21 21 -21
13z"/>
<path d="M395 1600 c3 -5 8 -10 11 -10 2 0 4 5 4 10 0 6 -5 10 -11 10 -5 0 -7
-4 -4 -10z"/>
<path d="M316 1553 c-6 -14 -5 -15 5 -6 7 7 10 15 7 18 -3 3 -9 -2 -12 -12z"/>
<path d="M357 1533 c3 -7 6 -13 8 -13 2 0 5 6 8 13 3 8 -1 14 -8 14 -7 0 -11
-6 -8 -14z"/>
<path d="M2233 1525 c0 -8 4 -12 9 -9 5 3 6 10 3 15 -9 13 -12 11 -12 -6z"/>
<path d="M2182 1513 c-10 -4 -9 -9 5 -20 10 -8 13 -12 6 -9 -6 4 -15 1 -19 -5
-4 -7 -3 -9 3 -6 5 4 16 -5 23 -18 7 -14 17 -25 22 -25 5 0 6 -5 2 -12 -4 -6
-3 -8 3 -5 11 7 31 -11 31 -28 1 -14 42 -40 42 -26 0 6 -8 11 -17 11 -15 0
-16 2 -3 9 8 6 17 8 20 6 4 -2 7 2 7 10 0 8 -3 12 -7 10 -11 -7 -51 26 -44 37
4 7 9 6 14 -2 5 -8 9 -8 13 3 4 10 0 14 -11 12 -9 -2 -17 -4 -17 -5 0 -1 -8
-3 -17 -5 -11 -2 -15 2 -11 11 3 7 8 13 11 12 18 -2 32 3 32 11 0 10 -26 9
-36 -2 -12 -12 -24 -8 -24 9 0 9 5 12 13 8 8 -5 8 -2 -2 9 -14 18 -18 19 -39
10z m106 -119 c2 -1 -5 -5 -15 -8 -9 -4 -14 -4 -10 0 4 4 -3 19 -15 33 l-23
26 30 -25 c17 -14 31 -26 33 -26z"/>
<path d="M296 1502 c-3 -4 4 -9 15 -9 23 -2 25 3 4 10 -8 4 -16 3 -19 -1z"/>
<path d="M2290 1499 c0 -5 5 -7 10 -4 6 3 10 8 10 11 0 2 -4 4 -10 4 -5 0 -10
-5 -10 -11z"/>
<path d="M325 1449 c-4 -6 -5 -12 -2 -15 2 -3 7 2 10 11 7 17 1 20 -8 4z"/>
<path d="M2296 1431 c-4 -5 3 -7 14 -4 23 6 26 13 6 13 -8 0 -17 -4 -20 -9z"/>
<path d="M255 1420 c3 -5 8 -10 11 -10 2 0 4 5 4 10 0 6 -5 10 -11 10 -5 0 -7
-4 -4 -10z"/>
<path d="M307 1414 c3 -7 10 -14 17 -14 6 0 4 -5 -4 -10 -11 -7 -17 -5 -22 8
-6 16 -7 16 -7 0 -1 -9 3 -20 9 -23 6 -4 3 -17 -8 -33 -15 -23 -12 -22 19 8
31 28 35 37 26 52 -15 22 -38 32 -30 12z m28 -34 c-3 -5 -12 -10 -18 -10 -7 0
-6 4 3 10 19 12 23 12 15 0z"/>
<path d="M2346 1382 c-3 -5 1 -9 9 -9 8 0 12 4 9 9 -3 4 -7 8 -9 8 -2 0 -6 -4
-9 -8z"/>
<path d="M273 1359 c-2 -23 3 -25 10 -4 4 8 3 16 -1 19 -4 3 -9 -4 -9 -15z"/>
<path d="M2310 1340 c0 -5 5 -10 10 -10 6 0 10 5 10 10 0 6 -4 10 -10 10 -5 0
-10 -4 -10 -10z"/>
<path d="M236 1313 c-6 -14 -5 -15 5 -6 7 7 10 15 7 18 -3 3 -9 -2 -12 -12z"/>
<path d="M2331 1293 c-1 -17 16 -25 25 -12 4 7 3 9 -4 5 -5 -3 -13 0 -15 6 -4
9 -6 10 -6 1z"/>
<path d="M2303 1262 c-8 -5 -9 -13 -3 -22 5 -8 12 -11 16 -7 4 4 14 1 23 -6
14 -11 14 -10 2 5 -7 10 -17 15 -22 12 -5 -3 -9 -1 -9 5 0 5 6 12 13 14 6 3 8
6 2 6 -5 0 -15 -3 -22 -7z"/>
<path d="M2370 1261 c0 -6 4 -13 10 -16 6 -3 7 1 4 9 -7 18 -14 21 -14 7z"/>
<path d="M294 1238 c-4 -6 -3 -8 4 -4 5 3 12 1 14 -6 3 -8 6 -9 11 -1 4 6 0
13 -8 17 -8 3 -17 0 -21 -6z"/>
<path d="M270 1220 c0 -6 7 -10 15 -10 8 0 15 2 15 4 0 2 -7 6 -15 10 -8 3
-15 1 -15 -4z"/>
<path d="M2285 1211 c-3 -5 0 -13 6 -17 7 -4 9 -3 5 4 -3 5 0 13 6 15 9 4 10
6 1 6 -6 1 -14 -3 -18 -8z"/>
<path d="M2320 1200 c-9 -6 -10 -10 -3 -10 6 0 15 5 18 10 8 12 4 12 -15 0z"/>
<path d="M2233 1193 c4 -3 2 -12 -4 -19 -7 -8 -6 -14 2 -19 6 -4 15 -2 19 5
10 16 2 40 -13 40 -6 0 -7 -3 -4 -7z"/>
<path d="M285 1160 c-3 -6 1 -7 9 -4 18 7 21 14 7 14 -6 0 -13 -4 -16 -10z"/>
<path d="M2299 1138 c-6 -20 -6 -39 0 -42 4 -3 7 6 7 20 0 20 -4 32 -7 22z"/>
<path d="M296 1107 c3 -10 9 -15 12 -12 3 3 0 11 -7 18 -10 9 -11 8 -5 -6z"/>
<path d="M2185 1070 c9 -17 10 -31 4 -43 -8 -13 -6 -15 5 -11 8 3 13 14 11 25
-2 10 0 21 5 24 15 9 0 34 -20 32 -16 -1 -17 -4 -5 -27z m20 10 c3 -5 1 -10
-4 -10 -6 0 -11 5 -11 10 0 6 2 10 4 10 3 0 8 -4 11 -10z"/>
<path d="M363 1058 c-11 -18 -12 -37 -3 -43 4 -2 7 5 6 18 -1 13 4 21 12 19 8
-1 11 2 7 8 -8 13 -12 13 -22 -2z"/>
<path d="M2250 1059 c0 -5 5 -7 10 -4 6 3 10 8 10 11 0 2 -4 4 -10 4 -5 0 -10
-5 -10 -11z"/>
<path d="M514 1021 c15 -16 27 -32 26 -36 -1 -4 0 -9 3 -11 2 -2 4 4 4 14 0 9
-11 27 -24 40 -35 32 -42 27 -9 -7z"/>
<path d="M399 1013 c-12 -16 -12 -17 2 -6 9 7 20 9 24 5 5 -4 5 -1 1 6 -9 16
-11 15 -27 -5z"/>
<path d="M436 994 c-5 -14 -4 -15 9 -4 17 14 19 20 6 20 -5 0 -12 -7 -15 -16z"/>
<path d="M455 980 c-7 -11 22 -26 32 -16 4 3 -1 6 -11 6 -9 0 -14 5 -11 10 3
6 4 10 1 10 -3 0 -8 -5 -11 -10z"/>
<path d="M467 943 c-3 -5 5 -8 18 -8 13 0 21 3 18 8 -2 4 -10 7 -18 7 -8 0
-16 -3 -18 -7z"/>
<path d="M590 920 c0 -5 5 -10 11 -10 5 0 7 5 4 10 -3 6 -8 10 -11 10 -2 0 -4
-4 -4 -10z"/>
<path d="M561 873 c-1 -17 16 -25 25 -12 4 7 3 9 -4 5 -5 -3 -13 0 -15 6 -4 9
-6 10 -6 1z"/>
<path d="M1983 855 c-3 -9 -3 -18 -1 -21 3 -3 8 4 11 16 6 23 -1 27 -10 5z"/>
<path d="M705 800 c-3 -5 -3 -10 2 -10 4 0 0 -5 -9 -11 -20 -11 -24 -29 -6
-29 6 0 9 3 5 6 -3 4 3 14 15 24 14 11 17 19 10 24 -6 3 -13 2 -17 -4z"/>
<path d="M713 705 c0 -8 4 -15 9 -15 4 0 8 4 8 9 0 6 -4 12 -8 15 -5 3 -9 -1
-9 -9z"/>
<path d="M660 666 c0 -2 8 -10 18 -17 15 -13 16 -12 3 4 -13 16 -21 21 -21 13z"/>
<path d="M794 598 c-4 -7 -4 -10 1 -6 4 4 15 2 24 -5 14 -11 14 -10 2 6 -16
20 -18 21 -27 5z"/>
<path d="M1757 595 c-8 -8 -17 -12 -21 -10 -3 3 -4 2 -1 -2 9 -12 34 -12 32 0
-1 7 4 11 11 9 8 -1 11 2 7 8 -8 13 -11 13 -28 -5z"/>
<path d="M912 565 c-12 -14 -22 -28 -22 -33 1 -4 9 3 19 15 10 12 21 19 25 16
3 -4 -2 -15 -11 -25 -16 -18 -16 -18 0 -12 9 3 17 10 17 15 0 5 5 8 11 7 6 -2
13 5 14 15 2 11 1 16 -2 13 -4 -3 -11 -1 -18 4 -8 7 -18 2 -33 -15z m39 -2
c13 -16 12 -17 -3 -4 -10 7 -18 15 -18 17 0 8 8 3 21 -13z"/>
<path d="M1704 568 c-4 -7 -4 -10 1 -6 4 4 15 2 24 -5 14 -11 14 -10 2 6 -16
20 -18 21 -27 5z"/>
<path d="M846 562 c-3 -5 1 -9 9 -9 8 0 12 4 9 9 -3 4 -7 8 -9 8 -2 0 -6 -4
-9 -8z"/>
<path d="M1672 548 c-7 -7 -12 -17 -12 -22 0 -6 5 -3 11 7 8 13 14 15 30 7 10
-6 19 -8 19 -6 0 14 -38 24 -48 14z"/>
<path d="M950 519 c0 -5 5 -7 10 -4 6 3 10 8 10 11 0 2 -4 4 -10 4 -5 0 -10
-5 -10 -11z"/>
<path d="M913 498 c1 -7 -4 -12 -11 -10 -8 1 -11 -2 -7 -8 5 -8 11 -8 21 1 7
6 11 15 8 20 -8 13 -14 11 -11 -3z"/>
<path d="M1655 499 c-4 -6 -5 -12 -2 -15 2 -3 7 2 10 11 7 17 1 20 -8 4z"/>
<path d="M1670 486 c0 -2 7 -7 16 -10 8 -3 12 -2 9 4 -6 10 -25 14 -25 6z"/>
<path d="M1074 455 c3 -23 12 -26 13 -5 1 11 -2 20 -7 20 -4 0 -7 -7 -6 -15z"/>
<path d="M1000 442 c0 -4 10 -9 22 -9 18 -2 20 0 8 7 -18 12 -30 13 -30 2z"/>
<path d="M1561 404 c0 -11 3 -14 6 -6 3 7 2 16 -1 19 -3 4 -6 -2 -5 -13z"/>
<path d="M1395 349 c-18 -20 -35 -35 -38 -33 -2 2 -12 -6 -23 -18 l-19 -23 23
19 c23 20 31 9 10 -12 -8 -8 -8 -12 -1 -12 6 0 16 13 22 28 7 16 20 28 32 29
10 1 17 -2 14 -7 -3 -4 2 -11 10 -14 13 -4 13 -2 5 14 -12 22 -13 30 -2 29 21
-4 31 3 29 19 -2 29 -25 22 -62 -19z m46 17 c-1 -3 -3 -5 -5 -3 -2 1 -14 -7
-27 -18 l-24 -20 24 28 c22 24 34 29 32 13z"/>
<path d="M1473 370 c1 -10 4 -17 8 -14 4 2 10 -2 13 -8 3 -7 3 -2 0 11 -5 18
-3 22 7 16 8 -5 10 -4 6 0 -15 17 -36 13 -34 -5z"/>
<path d="M1525 367 c-14 -11 -15 -16 -5 -22 9 -6 11 -4 5 5 -6 9 -4 12 7 8 9
-4 15 0 15 8 0 17 1 17 -22 1z"/>
<path d="M1046 361 c-3 -4 4 -7 14 -6 27 2 33 10 10 12 -11 1 -22 -2 -24 -6z"/>
<path d="M1086 342 c-3 -5 1 -9 9 -9 8 0 12 4 9 9 -3 4 -7 8 -9 8 -2 0 -6 -4
-9 -8z"/>
<path d="M1106 302 c-2 -4 4 -8 14 -8 10 0 16 4 14 8 -3 4 -9 8 -14 8 -5 0
-11 -4 -14 -8z"/>
<path d="M1223 293 c-3 -10 -8 -22 -11 -27 -3 -5 0 -6 7 -2 6 4 20 2 29 -5 15
-12 15 -12 0 7 -25 29 -22 41 3 18 22 -19 22 -19 8 4 -17 27 -27 28 -36 5z"/>
<path d="M1392 305 c4 -4 0 -13 -9 -20 -13 -10 -14 -13 -2 -20 8 -5 11 -5 7 0
-4 4 0 13 9 20 13 10 14 13 2 20 -8 5 -11 5 -7 0z"/>
<path d="M1310 239 c0 -5 5 -7 10 -4 6 3 10 8 10 11 0 2 -4 4 -10 4 -5 0 -10
-5 -10 -11z"/>
</g>
</svg>
